<?xml version="1.0" encoding="UTF-8" standalone="no"?>
<svg
   xmlns:dc="http://purl.org/dc/elements/1.1/"
   xmlns:cc="http://creativecommons.org/ns#"
   xmlns:rdf="http://www.w3.org/1999/02/22-rdf-syntax-ns#"
   xmlns:svg="http://www.w3.org/2000/svg"
   xmlns="http://www.w3.org/2000/svg"
   xmlns:xlink="http://www.w3.org/1999/xlink"
   xmlns:sodipodi="http://sodipodi.sourceforge.net/DTD/sodipodi-0.dtd"
   xmlns:inkscape="http://www.inkscape.org/namespaces/inkscape"
   width="423.33334mm"
   height="238.125mm"
   viewBox="0 0 423.33334 238.125"
   version="1.1"
   id="svg8"
   inkscape:version="1.0 (4035a4fb49, 2020-05-01)"
   sodipodi:docname="background-4.svg">
  <defs
     id="defs2">
    <linearGradient
       id="linearGradient3086"
       inkscape:collect="always">
      <stop
         id="stop3082"
         offset="0"
         style="stop-color:#000000;stop-opacity:1;" />
      <stop
         id="stop3084"
         offset="1"
         style="stop-color:#000000;stop-opacity:0;" />
    </linearGradient>
    <linearGradient
       id="linearGradient3038"
       inkscape:collect="always">
      <stop
         id="stop3034"
         offset="0"
         style="stop-color:#000000;stop-opacity:1;" />
      <stop
         id="stop3036"
         offset="1"
         style="stop-color:#e6e6e6;stop-opacity:1" />
    </linearGradient>
    <linearGradient
       gradientTransform="translate(-10.457787,70.53953)"
       gradientUnits="userSpaceOnUse"
       y2="151.10303"
       x2="34.629997"
       y1="139.90587"
       x1="39.362518"
       id="linearGradient3088"
       xlink:href="#linearGradient3086"
       inkscape:collect="always" />
    <linearGradient
       gradientTransform="translate(-10.457787,70.53953)"
       gradientUnits="userSpaceOnUse"
       y2="134.15004"
       x2="48.392624"
       y1="147.4521"
       x1="37.059807"
       id="linearGradient3090"
       xlink:href="#linearGradient3038"
       inkscape:collect="always" />
    <linearGradient
       gradientTransform="translate(-10.457787,70.53953)"
       gradientUnits="userSpaceOnUse"
       y2="-84.208435"
       x2="-9.1940985"
       y1="268.19165"
       x1="608.92987"
       id="linearGradient3098"
       xlink:href="#linearGradient3086"
       inkscape:collect="always" />
  </defs>
  <sodipodi:namedview
     inkscape:snap-grids="true"
     inkscape:object-paths="true"
     id="base"
     pagecolor="#ffffff"
     bordercolor="#666666"
     borderopacity="1.0"
     inkscape:pageopacity="0.0"
     inkscape:pageshadow="2"
     inkscape:zoom="0.5"
     inkscape:cx="805.55646"
     inkscape:cy="575.72092"
     inkscape:document-units="px"
     inkscape:current-layer="layer3"
     inkscape:document-rotation="0"
     showgrid="false"
     showborder="false"
     inkscape:window-width="1920"
     inkscape:window-height="1025"
     inkscape:window-x="0"
     inkscape:window-y="0"
     inkscape:window-maximized="1" />
  <metadata
     id="metadata5">
    <rdf:RDF>
      <cc:Work
         rdf:about="">
        <dc:format>image/svg+xml</dc:format>
        <dc:type
           rdf:resource="http://purl.org/dc/dcmitype/StillImage" />
        <dc:title></dc:title>
        <cc:license
           rdf:resource="http://creativecommons.org/publicdomain/zero/1.0/" />
      </cc:Work>
      <cc:License
         rdf:about="http://creativecommons.org/publicdomain/zero/1.0/">
        <cc:permits
           rdf:resource="http://creativecommons.org/ns#Reproduction" />
        <cc:permits
           rdf:resource="http://creativecommons.org/ns#Distribution" />
        <cc:permits
           rdf:resource="http://creativecommons.org/ns#DerivativeWorks" />
      </cc:License>
    </rdf:RDF>
  </metadata>
  <g
     inkscape:label="Background"
     inkscape:groupmode="layer"
     id="layer1">
    <rect
       id="rect10"
       width="423.33334"
       height="238.125"
       x="0"
       y="0"
       style="fill:url(#linearGradient3098);fill-opacity:1;stroke-width:0.264583" />
    <path
       style="fill:#ffffff;fill-opacity:1;stroke-width:0.264583"
       d="M 31.935001,191.31338 A 14.284141,21.815695 35.009974 0 1 27.677379,199.83379 14.284141,21.815695 35.009974 0 1 3.4618042,209.5071 14.284141,21.815695 35.009974 0 1 1.7161865e-7,205.15749 v 32.9675 H 83.859484 a 47.032997,21.964172 35.009974 0 1 -24.33082,-12.21011 47.032997,21.964172 35.009974 0 1 -27.593663,-34.6015 z"
       id="path935" />
  </g>
  <g
     inkscape:label="Middle layer"
     id="layer4"
     inkscape:groupmode="layer">
    <path
       d="M 5.2182862,210.47654 A 14.284141,21.815695 35.009974 0 1 3.4618042,209.50709 14.284141,21.815695 35.009974 0 1 1.7161865e-7,205.15749 v 32.9675 H 83.859486 a 47.032997,21.964172 35.009974 0 1 -7.01921,-2.55437 l 0.0165,0.0822 -70.502155,-24.77679 a 14.284141,21.815695 35.009974 0 1 -1.1363648,-0.39946 z"
       style="fill:url(#linearGradient3088);fill-opacity:1;stroke:none;stroke-width:0.264583;stroke-miterlimit:4;stroke-dasharray:none;stroke-opacity:1"
       id="path908" />
    <path
       d="m 6.354652,210.87604 70.502157,24.77678 -0.0165,-0.0822 a 47.032997,21.964172 35.009974 0 1 -17.311643,-9.65574 47.032997,21.964172 35.009974 0 1 -27.593665,-34.6015 14.284141,21.815695 35.009974 0 1 -4.257619,8.52041 14.284141,21.815695 35.009974 0 1 -21.32273,11.04222 z"
       style="fill:url(#linearGradient3090);fill-opacity:1;stroke:none;stroke-width:0.264583"
       id="path904" />
  </g>
  <g
     inkscape:label="BaseALT Logo Layer"
     id="layer3"
     inkscape:groupmode="layer">
    <g
       id="g643"
       transform="matrix(0.11851511,0,0,-0.11851511,-8.0600248,303.92524)">
      <path
         id="path96"
         style="fill:#ffcb04;fill-opacity:1;fill-rule:evenodd;stroke:none"
         d="M 89.175639,581.55634 H 203.64164 v 114.467 H 89.175639 Z" />
      <g
         transform="translate(260.55094,564.51914)"
         id="g106">
        <path
           id="path108"
           style="fill:#ffffff;fill-opacity:1;fill-rule:nonzero;stroke:none"
           d="m 0,0 c -3.119,1.617 -5.807,0.242 -5.009,7.496 0.571,5.198 -2.357,9.217 -6.32,11.838 -4.197,2.777 -9.473,3.389 -14.09,5.198 -0.746,0.293 -1.485,0.611 -2.221,0.943 -3.403,1.531 -6.961,3.804 -9.646,6.412 -0.017,0.016 -0.034,0.031 -0.051,0.047 -0.795,0.776 -1.552,1.596 -2.303,2.443 -0.51,8.106 2.182,16.522 2.491,23.373 0.11,2.436 -0.081,4.924 -0.463,7.33 -0.784,4.933 -4.286,10.781 -0.869,15.325 0.397,0.529 0.845,0.886 1.438,1.452 1.813,1.732 3.529,3.952 3.811,6.519 0.066,0.599 0.057,1.087 0.092,1.438 0.487,0.547 0.776,1.386 0.686,2.107 -0.046,0.361 -0.186,0.693 -0.443,0.945 -0.258,0.252 -0.633,0.424 -1.148,0.464 0.048,-0.141 0.082,-0.29 0.095,-0.445 0.014,-0.154 0.006,-0.314 -0.027,-0.478 -0.051,-0.246 -0.161,-0.502 -0.353,-0.762 -0.063,-0.087 -0.136,-0.174 -0.218,-0.261 0.017,0.091 0.024,0.18 0.023,0.267 -0.002,0.088 -0.012,0.173 -0.03,0.257 -0.054,0.252 -0.178,0.488 -0.341,0.704 -0.157,0.208 -0.351,0.397 -0.554,0.567 -0.008,0.007 -0.016,0.015 -0.025,0.023 -0.805,-0.132 -1.612,-0.179 -2.509,-0.164 -0.539,0.01 -1.11,0.043 -1.734,0.094 -1.245,0.103 -2.698,0.282 -4.509,0.503 -3.082,0.376 -6.217,0.612 -9.266,-0.122 -4.326,-1.042 -7.752,-3.97 -9.198,-8.244 -1.047,-3.095 -1.249,-6.37 -1.943,-9.545 -0.424,-1.943 -1.985,-4.732 -5.319,-8.76 -3.416,-0.66 -7.457,-0.062 -8.597,0.117 -0.38,0.06 -0.755,0.131 -1.118,0.215 -0.115,-0.119 -0.224,-0.246 -0.321,-0.38 -0.193,-0.268 -0.335,-0.563 -0.366,-0.871 -0.015,-0.154 -0.003,-0.311 0.044,-0.47 -0.705,0.613 -0.776,1.269 -0.621,1.827 0.022,0.079 0.048,0.157 0.079,0.232 -0.041,0.014 -0.085,0.026 -0.126,0.041 -0.437,0.157 -0.78,0.175 -1.042,0.09 -0.262,-0.085 -0.443,-0.272 -0.556,-0.523 -0.049,-0.109 -0.088,-0.216 -0.118,-0.323 -0.03,-0.106 -0.052,-0.212 -0.065,-0.316 -0.025,-0.208 -0.018,-0.412 0.017,-0.611 0.017,-0.099 0.041,-0.197 0.071,-0.293 0.045,-0.145 0.108,-0.285 0.178,-0.423 0.053,-0.104 0.111,-0.207 0.176,-0.308 0.036,-0.057 0.073,-0.112 0.113,-0.167 0.481,-0.674 1.461,-2.059 4.462,-3.321 -0.876,-0.155 -2.668,0.137 -4.678,1.83 -2.448,-3.318 3.927,-7.193 6.186,-8.892 0.199,-3.676 -2.157,-6.641 -4.054,-8.347 -3.395,-3.054 -7.79,-5.147 -11.551,-7.719 -4.972,-3.402 -9.521,-7.17 -12.941,-12.18 -0.604,-0.885 -1.106,-1.811 -1.514,-2.766 -1.221,-2.864 -1.587,-5.982 -1.271,-8.989 0.413,-3.924 1.492,-8.402 -2.637,-10.805 -1.611,-0.937 -10.541,-3.245 -13.041,-9.995 6.25,3.375 9.905,1.278 14.625,2.25 4.25,0.875 6.625,4 6.324,7.5 0.265,-3.749 1.874,-7.236 5.558,-8.671 1.935,-0.753 4.057,-0.921 6.111,-0.72 1.851,0.181 3.732,0.982 5.606,0.636 3.975,-0.736 7.728,-1.793 11.725,-0.719 1.259,0.338 2.344,0.669 3.372,1.031 1.815,-0.633 3.618,-1.151 5.367,-1.542 2.716,-0.606 5.384,-0.928 7.932,-0.956 3.112,-0.034 6.051,0.363 8.736,1.18 1.29,0.392 2.501,0.898 3.652,1.468 1.549,-0.315 3.124,-0.501 4.701,-0.597 0.047,-0.003 0.111,-0.005 0.19,-0.006 0.195,-0.002 0.484,0.004 0.818,0.018 0.741,-0.331 1.673,-0.705 2.67,-0.716 1.139,-0.013 2.098,0.455 2.776,1.352 0.617,0.82 0.757,1.809 0.388,2.71 -0.091,0.221 -0.21,0.434 -0.359,0.637 -0.024,0.472 -0.109,0.928 -0.281,1.356 4.115,-0.579 8.404,0.04 11.601,0.852 -1.387,-3.688 -6.575,-4.917 -10.074,-4.251 2.879,-2.715 7.107,-3.202 10.828,-2.29 2.069,0.507 4.027,1.445 5.677,2.795 1.349,1.105 2.65,2.75 4.614,2.191 1.159,-0.329 1.68,-1.342 2.478,-2.136 0.975,-0.971 2.164,-1.68 3.465,-2.122 3.655,-1.243 7.25,0.5 11.125,-1.251 C 5.131,-3.633 3.119,-1.617 0,0" />
      </g>
      <g
         transform="translate(195.24144,589.31684)"
         id="g110">
        <path
           id="path112"
           style="fill:#231f20;fill-opacity:1;fill-rule:nonzero;stroke:none"
           d="M 0,0 C -0.833,0.661 -1.51,0.417 -1.51,0.417 -1.595,0.035 -1.027,-0.652 -0.621,-1.705 -0.215,-2.757 0.633,-3.267 0.872,-2.198 1.11,-1.13 0.52,-0.413 0,0" />
      </g>
      <g
         transform="translate(187.43734,590.33894)"
         id="g114">
        <path
           id="path116"
           style="fill:#231f20;fill-opacity:1;fill-rule:nonzero;stroke:none"
           d="M 0,0 C 0.023,0.013 0.044,0.026 0.068,0.039 0.52,0.294 0.973,0.39 1.296,0.458 1.625,0.527 1.82,0.565 1.74,0.708 1.681,0.812 1.497,0.919 1.244,0.987 v 0 C 0.888,1.084 0.394,1.102 -0.091,0.928 -0.197,0.889 -0.303,0.845 -0.407,0.786 -1.319,0.274 -1.794,-0.445 -1.636,-0.727 -1.481,-1.002 -0.874,-0.5 0,0" />
      </g>
      <g
         transform="translate(191.98994,587.44744)"
         id="g118">
        <path
           id="path120"
           style="fill:#231f20;fill-opacity:1;fill-rule:nonzero;stroke:none"
           d="M 0,0 C -0.02,0.228 -0.091,0.445 -0.247,0.648 0.225,0.682 0.566,0.83 0.631,1.082 0.744,1.521 -0.012,2.096 -1.057,2.365 -2.053,2.622 -2.944,2.507 -3.125,2.116 -3.135,2.097 -3.151,2.08 -3.156,2.059 -3.184,1.948 -3.151,1.829 -3.077,1.709 -3.019,1.615 -2.938,1.52 -2.829,1.427 -2.834,1.425 -2.839,1.424 -2.844,1.422 -2.91,1.402 -2.969,1.369 -3.029,1.337 -3.137,1.279 -3.239,1.211 -3.33,1.126 -3.583,1.132 -3.949,1.128 -4.343,1.088 -4.943,1.027 -5.606,0.883 -6.03,0.552 -5.331,0.624 -4.731,0.6 -4.271,0.553 -4.09,0.534 -3.925,0.512 -3.793,0.49 -3.815,0.445 -3.834,0.397 -3.854,0.351 -3.951,0.33 -4.084,0.299 -4.229,0.262 -4.901,0.088 -5.974,-0.27 -6.457,-0.892 c 1.02,0.372 1.879,0.47 2.327,0.495 0.006,0 0.016,0.001 0.021,0.002 -0.004,-0.017 -0.008,-0.034 -0.012,-0.051 -0.014,-0.053 -0.028,-0.105 -0.039,-0.156 -0.508,-0.204 -1.911,-0.828 -2.363,-1.682 0.984,0.568 1.841,0.809 2.26,0.903 -0.017,-0.521 0.099,-0.939 0.303,-1.257 -0.282,-0.058 -0.493,-0.195 -0.566,-0.404 -0.15,-0.428 0.331,-0.986 1.074,-1.247 0.046,-0.016 0.09,-0.017 0.136,-0.03 0.568,-0.163 1.087,-0.096 1.339,0.155 0.055,0.055 0.117,0.107 0.142,0.179 0.072,0.206 -0.004,0.442 -0.183,0.66 0.453,0.117 0.888,0.392 1.23,0.815 0.242,-0.271 0.85,-1.015 1.342,-2.17 0.163,1.032 -0.722,2.516 -0.939,2.86 0.022,0.054 0.041,0.112 0.061,0.169 0.31,-0.251 1.009,-0.873 1.661,-1.876 -0.018,1.065 -1.189,2.401 -1.432,2.667 0.008,0.031 0.015,0.063 0.022,0.094 C 0.336,-0.967 1.079,-1.39 1.863,-2.115 1.623,-1.225 0.494,-0.349 0,0" />
      </g>
      <g
         transform="translate(231.92524,580.62994)"
         id="g122">
        <path
           id="path124"
           style="fill:#231f20;fill-opacity:1;fill-rule:nonzero;stroke:none"
           d="m 0,0 c -3.027,0.183 -4.95,1.092 -6.454,2.282 -1.233,0.974 -2.187,2.136 -3.231,3.245 -0.894,0.95 -2.285,1.591 -3.025,0.166 -0.649,-1.249 -0.046,-2.671 0.072,-3.966 0.206,-2.257 -0.873,-4.427 -2.079,-6.262 -0.364,-0.555 -0.932,-1.491 -1.668,-2.626 0.576,1.981 1.086,4.407 1.267,7.167 -1.203,-4.387 -3.647,-9.413 -5.542,-12.951 -2.665,-3.067 -5.975,-5.834 -9.571,-6.227 3.069,3.354 4.156,6.998 4.63,9.85 -0.315,2.767 -0.716,9.354 1.909,13.596 -0.522,-1.575 -0.683,-3.582 -0.655,-5.59 0.205,0.716 0.44,1.423 0.758,2.099 1.014,2.16 2.808,3.552 4.437,5.225 1.642,1.687 0.482,3.576 -1.353,4.472 -2.767,1.351 -8.863,7.526 -10.613,18.651 -0.736,-3.118 -0.491,-6.99 -0.058,-9.315 -2.979,6.093 -1.303,13.325 -2.249,19.866 -0.53,3.671 -2.383,6.461 -6.089,7.423 -0.842,0.219 -1.708,0.344 -2.574,0.42 -0.046,0.004 -0.087,0.011 -0.133,0.015 -0.504,-0.161 -1.056,-0.454 -1.473,-1.016 0.229,-0.361 0.499,-0.638 0.792,-0.853 0.301,-0.222 0.625,-0.376 0.952,-0.481 0.251,0.157 0.434,0.409 0.487,0.761 0.057,0.381 -0.051,0.793 -0.256,1.167 0.044,-0.016 0.083,-0.017 0.127,-0.037 0.71,-0.325 1.218,-1.044 1.134,-1.606 -0.035,-0.231 -0.18,-0.381 -0.368,-0.477 0.847,-0.036 1.513,0.148 1.513,0.148 0,0 -1.919,-1.133 -3.138,-0.524 -0.23,0.114 -0.457,0.238 -0.677,0.362 -0.727,0.408 -1.35,0.819 -1.606,0.992 -0.078,0.053 -0.133,0.091 -0.133,0.091 0,0 0.2,0.511 0.686,0.976 0.218,0.209 0.489,0.409 0.836,0.548 0.012,0.005 0.026,0.008 0.038,0.013 -0.05,10e-4 -0.095,0.007 -0.147,0.008 -0.142,0.005 -0.27,0.015 -0.405,0.023 -4.309,0.236 -4.981,1.987 -4.981,1.987 1.623,-0.62 3.683,-0.569 5.988,-0.457 0.618,0.03 1.251,0.061 1.901,0.088 0.343,0.014 0.687,0.028 1.037,0.036 3.395,0.082 6.282,-1.241 8.852,-4.528 -0.118,-0.042 -0.228,-0.098 -0.325,-0.177 -0.745,-0.611 -0.538,-2.095 0.462,-3.313 0.021,-0.027 0.045,-0.048 0.067,-0.073 0.437,-0.51 0.943,-0.882 1.437,-1.089 0.559,-0.233 1.1,-0.258 1.501,-0.028 0.074,-0.131 0.148,-0.265 0.222,-0.398 0.946,-1.704 1.881,-3.602 3.19,-6.174 1.68,-3.303 3.07,-6.781 5.136,-9.873 2.252,-3.369 5.855,-5.598 8.987,-8.145 3.001,-2.439 5.581,-5.033 8.892,-7.11 C 3.106,5.495 8.627,5.969 13.192,2.425 6.632,1.881 4.136,-0.25 0,0 m -6.245,-19.637 c -0.096,-0.127 -0.207,-0.216 -0.323,-0.288 -0.638,-0.395 -1.573,-0.039 -2.701,0.473 -0.194,0.089 -0.38,0.172 -0.551,0.243 -0.499,0.207 -0.916,0.354 -1.295,0.464 -0.754,0.22 -1.346,0.282 -2.057,0.293 0.457,0.315 0.661,0.711 0.732,1.046 0.07,0.328 0.012,0.597 -0.065,0.675 -0.016,0.016 -0.129,-0.061 -0.329,-0.201 -0.534,-0.372 -1.719,-1.206 -3.548,-2.056 -0.785,-0.365 -1.689,-0.73 -2.71,-1.064 -1.536,-0.502 -4.464,-0.913 -7.504,-1.128 5.663,1.655 9.089,7.028 10.519,8.644 2.417,-0.25 3.94,-2.228 4.576,-2.69 0.736,-0.533 1.505,-0.847 3.002,-1.1 1.57,-0.266 1.802,-0.608 1.835,-1.324 -0.561,0.283 -1.888,0.506 -2.513,0.146 1.432,-0.092 2.82,-1.093 3.034,-1.617 0.047,-0.114 0.078,-0.277 -0.102,-0.516 m -28.951,-0.928 c -1.41,0.301 -2.88,0.687 -4.419,1.189 -0.175,0.057 -0.344,0.106 -0.52,0.165 0.646,0.263 1.301,0.547 2.002,0.871 0.953,0.44 1.63,1.546 2.095,2.761 0.35,0.914 0.577,1.884 0.712,2.688 0.042,0.249 0.075,0.482 0.1,0.691 0.075,0.644 0.075,1.071 0.016,1.066 -0.042,-0.005 -0.134,-0.202 -0.269,-0.523 -0.108,-0.255 -0.246,-0.593 -0.407,-0.973 -0.407,-0.959 -0.977,-2.2 -1.676,-3.213 -0.501,-0.725 -1.065,-1.332 -1.685,-1.619 -2.097,-0.97 -3.177,-1.723 -5.274,-2.377 -0.233,-0.072 -0.469,-0.145 -0.73,-0.215 -2.49,-0.67 -3.853,-0.614 -5.749,-0.142 -0.036,0.009 -0.074,0.019 -0.11,0.029 -0.154,0.039 -0.303,0.075 -0.465,0.119 -0.728,0.2 -1.314,0.323 -1.817,0.407 -0.5,0.083 -0.917,0.128 -1.309,0.17 -0.533,0.057 -1.037,0.111 -1.671,0.253 -0.437,0.097 -0.703,0.255 -0.79,0.47 -0.08,0.196 -0.039,0.49 0.107,0.868 0.135,0.345 0.357,0.76 0.679,1.253 1.082,1.658 3.56,1.554 5.356,0.96 2.297,-0.759 3.741,-0.178 4.566,0.795 0.083,0.098 0.167,0.201 0.259,0.303 1.08,1.204 0.771,2.61 0.424,4.273 -0.182,0.867 -0.37,1.804 -0.381,2.82 -0.002,0.24 0.002,0.483 0.022,0.731 -0.089,0.038 -0.307,-0.272 -0.505,-0.812 -0.232,-0.633 -0.424,-1.595 -0.35,-2.754 0.006,-0.098 0.003,-0.19 0.014,-0.291 l 0.042,-0.405 c 0.191,-1.829 0.195,-1.864 -0.602,-2.774 -0.094,-0.107 -0.182,-0.212 -0.269,-0.314 -0.026,-0.031 -0.051,-0.06 -0.076,-0.09 -0.275,0.194 -1.042,0.828 -1.761,2.269 -0.007,0.057 -0.024,0.113 -0.056,0.164 -0.023,0.035 -0.049,0.068 -0.072,0.103 -0.145,0.312 -0.285,0.662 -0.418,1.045 -0.234,0.672 -0.444,1.456 -0.604,2.374 -0.086,0.486 -0.157,1.008 -0.211,1.569 -0.175,1.803 -0.159,3.506 0.019,5.173 0.31,2.905 1.167,5.694 2.654,8.64 0.055,0.11 0.121,0.223 0.178,0.333 0.237,0.459 0.471,0.916 0.739,1.385 0.689,1.204 1.461,2.063 2.26,2.689 0.414,0.324 0.834,0.587 1.255,0.789 0.436,0.208 0.872,0.362 1.3,0.464 0.612,0.146 1.207,0.195 1.764,0.183 1.303,-0.026 2.389,-0.38 2.945,-0.605 3.395,-1.375 5.005,-4.171 4.2,-7.297 -0.199,-0.774 -0.426,-1.493 -0.646,-2.189 -0.916,-2.905 -1.165,-5.073 1.628,-6.933 1.212,-0.806 2.452,-1.063 4.709,-1.84 1.25,-6.125 -2.66,-12.516 -7.203,-14.696 m -30.16,18.033 c -3.459,-1.421 -6.272,-3.449 -8.387,-6.587 0.324,0.481 -2.122,6.599 -2.235,7.668 -1.422,13.435 11.135,19.754 20.61,25.832 6.625,4.25 9.375,8.375 8.665,12.882 2.96,-2.882 4.458,-6.836 3.721,-12.313 -0.928,-6.902 -0.011,-9.319 -0.011,-9.319 0,0 -5.167,-1.167 -8.027,-8.919 -2.259,-4.793 -5.161,-5.956 -7.473,-6.769 1.625,1.375 2.625,3.313 2.876,4.744 -3.126,-3.556 -5.943,-5.66 -9.739,-7.219 m 48.294,75.864 c 0.076,-0.298 0.264,-0.494 0.504,-0.584 -0.035,-0.025 -0.063,-0.058 -0.101,-0.08 -0.521,-0.303 -1.03,-0.204 -1.138,0.221 -0.108,0.426 0.227,1.017 0.748,1.321 0.032,0.019 0.062,0.022 0.095,0.038 -0.129,-0.303 -0.181,-0.628 -0.108,-0.916 M -34.868,58.006 c 1.247,2.529 1.882,5.374 2.579,7.497 0.068,0.208 0.148,0.412 0.223,0.618 1.076,-0.424 2.436,0.343 3.073,1.76 0.548,1.222 0.376,2.522 -0.341,3.195 2.551,3.254 6.237,5.421 10.688,4.933 4.305,-0.472 6.365,-0.5 11.235,0.249 -1.551,-1.803 -4.481,-2.013 -6.391,-1.704 0.513,-0.432 0.753,-0.907 0.753,-0.907 0,0 -1.632,-3.891 -5.879,-1.587 1.81,-0.492 3.318,-0.672 4.81,1.883 -1.821,1.556 -4.3,0.732 -4.847,-0.06 -0.721,-1.043 -1.716,-1.377 -3.153,-2.877 -1.438,-1.5 -1.977,-4.358 -1.977,-4.358 0,0 -0.586,1.108 0.406,3.653 -1.742,-1.483 -2.922,-3.086 -3.823,-5.036 -1.182,-2.559 -1.669,-9.384 1.753,-15.467 -1.984,1.75 -3.742,4.636 -3.984,8.75 -2.258,-6.031 3.075,-12.039 5.537,-17.103 2.463,-5.064 3.144,-7.829 4.088,-10.064 1.686,-3.992 2.875,-6.125 5.095,-8.96 -4.283,2.647 -7.144,11.426 -8.948,15.269 -0.127,0.27 -0.255,0.543 -0.385,0.819 -1.382,2.942 -2.915,6.059 -5.334,8.3 -0.386,0.357 -0.784,0.686 -1.195,0.987 -1.754,1.28 -4.358,3.085 -9.025,3.002 1.354,1.708 2.792,2.645 5.042,7.208 m 63.494,-74.117 c -3.12,1.617 -5.807,0.242 -5.01,7.496 C 24.188,-3.417 21.26,0.602 17.297,3.223 13.099,6 7.824,6.612 3.207,8.422 2.461,8.714 1.722,9.033 0.985,9.364 c -3.403,1.531 -6.961,3.804 -9.645,6.412 -0.017,0.016 -0.034,0.031 -0.051,0.047 -0.795,0.776 -1.552,1.596 -2.303,2.444 -0.51,8.105 2.182,16.521 2.491,23.372 0.11,2.436 -0.081,4.924 -0.463,7.33 -0.784,4.933 -4.286,10.781 -0.87,15.325 0.398,0.529 0.846,0.886 1.439,1.452 1.812,1.732 3.528,3.952 3.81,6.519 0.066,0.599 0.058,1.087 0.093,1.438 0.487,0.547 0.776,1.386 0.685,2.107 -0.045,0.362 -0.185,0.693 -0.442,0.945 -0.258,0.252 -0.633,0.424 -1.148,0.465 0.048,-0.142 0.082,-0.291 0.095,-0.446 0.013,-0.154 0.006,-0.314 -0.028,-0.478 -0.05,-0.246 -0.161,-0.502 -0.352,-0.762 -0.064,-0.086 -0.136,-0.174 -0.219,-0.261 0.018,0.091 0.025,0.18 0.024,0.267 -0.002,0.088 -0.012,0.174 -0.03,0.257 -0.055,0.252 -0.178,0.488 -0.342,0.705 -0.156,0.207 -0.35,0.396 -0.553,0.566 -0.009,0.008 -0.017,0.015 -0.026,0.023 -0.804,-0.131 -1.611,-0.179 -2.508,-0.163 -0.539,0.009 -1.111,0.042 -1.734,0.093 -1.246,0.103 -2.698,0.282 -4.51,0.503 -3.081,0.376 -6.216,0.613 -9.265,-0.122 -4.327,-1.042 -7.752,-3.97 -9.198,-8.244 -1.047,-3.094 -1.249,-6.37 -1.943,-9.545 -0.425,-1.943 -1.985,-4.732 -5.319,-8.76 -3.416,-0.66 -7.457,-0.061 -8.597,0.117 -0.381,0.06 -0.755,0.132 -1.118,0.215 -0.115,-0.119 -0.225,-0.246 -0.321,-0.38 -0.194,-0.268 -0.335,-0.563 -0.366,-0.871 -0.016,-0.154 -0.003,-0.311 0.044,-0.47 -0.706,0.613 -0.777,1.269 -0.622,1.827 0.022,0.079 0.049,0.157 0.079,0.232 -0.041,0.015 -0.085,0.026 -0.125,0.041 -0.438,0.157 -0.781,0.175 -1.042,0.09 -0.262,-0.085 -0.443,-0.272 -0.556,-0.523 -0.049,-0.109 -0.088,-0.216 -0.119,-0.323 -0.03,-0.106 -0.051,-0.212 -0.064,-0.316 -0.026,-0.208 -0.018,-0.412 0.016,-0.611 0.018,-0.099 0.042,-0.197 0.072,-0.293 0.045,-0.144 0.108,-0.285 0.177,-0.423 0.053,-0.104 0.112,-0.207 0.177,-0.308 0.036,-0.056 0.073,-0.112 0.112,-0.167 0.481,-0.674 1.462,-2.059 4.462,-3.32 -0.875,-0.156 -2.667,0.136 -4.677,1.829 -2.448,-3.318 3.927,-7.193 6.185,-8.892 0.2,-3.676 -2.156,-6.64 -4.053,-8.347 -3.395,-3.054 -7.79,-5.147 -11.551,-7.719 -4.973,-3.401 -9.521,-7.169 -12.942,-12.18 -0.603,-0.885 -1.106,-1.811 -1.513,-2.766 -1.222,-2.864 -1.587,-5.981 -1.271,-8.989 0.413,-3.924 1.492,-8.402 -2.638,-10.805 -1.611,-0.937 -10.54,-3.245 -13.04,-9.995 6.25,3.375 9.904,1.278 14.625,2.25 4.25,0.875 6.625,4 6.323,7.5 0.266,-3.749 1.874,-7.236 5.559,-8.671 1.934,-0.753 4.057,-0.921 6.111,-0.72 1.851,0.181 3.731,0.983 5.605,0.636 3.975,-0.736 7.729,-1.793 11.726,-0.719 1.258,0.338 2.343,0.67 3.371,1.031 1.815,-0.633 3.619,-1.151 5.368,-1.542 2.716,-0.606 5.384,-0.928 7.931,-0.956 3.112,-0.034 6.052,0.364 8.737,1.18 1.29,0.392 2.501,0.898 3.652,1.468 1.549,-0.314 3.123,-0.501 4.7,-0.597 0.047,-0.003 0.112,-0.005 0.191,-0.006 0.194,-0.002 0.484,0.004 0.817,0.018 0.742,-0.331 1.674,-0.705 2.671,-0.716 1.139,-0.013 2.097,0.455 2.776,1.352 0.617,0.82 0.757,1.81 0.388,2.71 -0.091,0.222 -0.21,0.434 -0.36,0.637 -0.023,0.472 -0.109,0.928 -0.281,1.356 4.116,-0.579 8.405,0.04 11.601,0.852 -1.386,-3.688 -6.574,-4.917 -10.073,-4.251 2.879,-2.715 7.107,-3.202 10.828,-2.29 2.069,0.507 4.027,1.445 5.677,2.796 1.349,1.104 2.65,2.749 4.613,2.191 1.16,-0.33 1.681,-1.343 2.478,-2.137 0.976,-0.97 2.165,-1.68 3.465,-2.122 3.655,-1.243 7.251,0.5 11.126,-1.251 -1.251,2.751 -3.262,4.767 -6.381,6.384" />
      </g>
      <g
         transform="translate(94.233639,611.25404)"
         id="g126">
        <path
           id="path128"
           style="fill:#231f20;fill-opacity:1;fill-rule:nonzero;stroke:none"
           d="m 0,0 c -1.678,-0.6 -3.427,-1.13 -5.245,-1.589 -2.477,-0.659 -4.045,-1.309 -4.705,-1.948 -0.679,-0.659 -1.019,-1.408 -1.019,-2.247 0,-0.959 0.335,-1.743 1.005,-2.353 0.669,-0.609 1.653,-0.914 2.951,-0.914 1.359,0 2.622,0.329 3.791,0.989 1.169,0.66 1.998,1.463 2.488,2.413 C -0.245,-4.701 0,-3.467 0,-1.948 Z m -10.579,6.413 -11.658,1.229 c 0.44,2.038 1.074,3.64 1.904,4.809 0.828,1.169 2.022,2.183 3.58,3.042 1.119,0.619 2.657,1.099 4.616,1.439 1.957,0.339 4.076,0.509 6.353,0.509 3.656,0 6.593,-0.205 8.811,-0.614 2.217,-0.41 4.065,-1.264 5.544,-2.562 1.038,-0.9 1.858,-2.173 2.457,-3.822 0.599,-1.648 0.899,-3.221 0.899,-4.719 V -8.332 c 0,-1.498 0.095,-2.672 0.285,-3.52 0.19,-0.85 0.604,-1.934 1.243,-3.252 H 2.008 c -0.46,0.819 -0.76,1.443 -0.899,1.873 -0.14,0.429 -0.28,1.103 -0.42,2.022 -1.599,-1.538 -3.187,-2.637 -4.765,-3.296 -2.157,-0.879 -4.665,-1.319 -7.522,-1.319 -3.796,0 -6.678,0.88 -8.646,2.637 -1.968,1.758 -2.952,3.926 -2.952,6.503 0,2.417 0.709,4.406 2.128,5.964 1.419,1.559 4.036,2.717 7.852,3.477 4.575,0.919 7.542,1.562 8.901,1.933 1.358,0.369 2.796,0.854 4.315,1.453 0,1.499 -0.31,2.547 -0.929,3.147 -0.62,0.599 -1.708,0.898 -3.267,0.898 -1.998,0 -3.496,-0.319 -4.495,-0.959 C -9.47,8.73 -10.1,7.791 -10.579,6.413" />
      </g>
      <path
         id="path130"
         style="fill:#231f20;fill-opacity:1;fill-rule:nonzero;stroke:none"
         d="m 113.89264,640.08334 h 12.227 v -43.934 h -12.227 z" />
      <g
         transform="translate(148.62574,640.08314)"
         id="g132">
        <path
           id="path134"
           style="fill:#231f20;fill-opacity:1;fill-rule:nonzero;stroke:none"
           d="m 0,0 v -12.107 h 6.713 v -8.931 H 0 v -11.276 c 0,-1.356 0.13,-2.252 0.39,-2.691 0.399,-0.678 1.098,-1.016 2.097,-1.016 0.9,0 2.158,0.258 3.777,0.777 l 0.899,-8.42 c -3.017,-0.659 -5.834,-0.989 -8.452,-0.989 -3.037,0 -5.274,0.389 -6.712,1.168 -1.439,0.778 -2.503,1.96 -3.192,3.546 -0.689,1.587 -1.034,4.156 -1.034,7.708 v 11.193 h -4.495 v 8.931 h 4.495 v 5.844 z" />
      </g>
      <g
         transform="translate(106.72004,657.47544)"
         id="g136">
        <path
           id="path138"
           style="fill:#231f20;fill-opacity:1;fill-rule:nonzero;stroke:none"
           d="m 0,0 c 0,-1.825 0.313,-3.146 0.941,-3.965 0.627,-0.819 1.422,-1.229 2.385,-1.229 0.889,0 1.635,0.403 2.238,1.209 0.603,0.805 0.904,2.16 0.904,4.065 0,1.678 -0.295,2.909 -0.886,3.696 C 4.991,4.561 4.276,4.954 3.435,4.954 2.424,4.954 1.599,4.544 0.959,3.725 0.32,2.906 0,1.664 0,0 M -7.456,18.617 H 0.055 V 8.47 c 0.743,0.852 1.586,1.491 2.531,1.917 0.943,0.426 1.988,0.64 3.133,0.64 2.363,0 4.319,-0.929 5.866,-2.787 1.547,-1.858 2.321,-4.524 2.321,-8 0,-2.317 -0.354,-4.359 -1.06,-6.123 -0.707,-1.765 -1.685,-3.083 -2.933,-3.955 -1.249,-0.872 -2.635,-1.309 -4.157,-1.309 -1.304,0 -2.497,0.307 -3.582,0.92 -0.816,0.479 -1.705,1.378 -2.667,2.696 v -3.136 h -6.963 z" />
      </g>
      <g
         transform="translate(137.41834,656.87584)"
         id="g140">
        <path
           id="path142"
           style="fill:#231f20;fill-opacity:1;fill-rule:nonzero;stroke:none"
           d="m 0,0 c -1.023,-0.399 -2.089,-0.752 -3.197,-1.059 -1.512,-0.439 -2.468,-0.872 -2.87,-1.298 -0.414,-0.439 -0.621,-0.939 -0.621,-1.498 0,-0.639 0.204,-1.162 0.613,-1.568 0.407,-0.406 1.007,-0.609 1.799,-0.609 0.829,0 1.599,0.219 2.312,0.659 0.713,0.439 1.218,0.975 1.516,1.608 C -0.149,-3.133 0,-2.31 0,-1.298 Z m -6.45,4.275 -7.108,0.819 c 0.267,1.358 0.654,2.427 1.16,3.206 0.505,0.779 1.233,1.455 2.183,2.028 0.683,0.412 1.621,0.732 2.815,0.959 1.193,0.226 2.485,0.339 3.873,0.339 2.23,0 4.02,-0.137 5.372,-0.41 C 3.198,10.943 4.324,10.374 5.226,9.508 5.86,8.909 6.359,8.06 6.725,6.962 7.09,5.863 7.273,4.814 7.273,3.816 v -9.369 c 0,-0.999 0.058,-1.781 0.173,-2.347 0.116,-0.566 0.369,-1.288 0.759,-2.167 H 1.224 c -0.28,0.545 -0.463,0.961 -0.548,1.248 -0.085,0.286 -0.171,0.736 -0.255,1.348 -0.975,-1.025 -1.944,-1.757 -2.906,-2.197 -1.316,-0.586 -2.845,-0.879 -4.587,-0.879 -2.314,0 -4.072,0.586 -5.271,1.758 -1.2,1.172 -1.8,2.617 -1.8,4.335 0,1.611 0.432,2.936 1.297,3.975 0.865,1.039 2.461,1.811 4.788,2.317 C -5.269,2.45 -3.46,2.88 -2.631,3.126 -1.803,3.373 -0.926,3.696 0,4.095 0,5.094 -0.189,5.793 -0.566,6.193 -0.944,6.592 -1.608,6.792 -2.558,6.792 -3.777,6.792 -4.69,6.579 -5.299,6.153 -5.774,5.82 -6.158,5.194 -6.45,4.275" />
      </g>
      <g
         transform="translate(147.83404,652.70134)"
         id="g144">
        <path
           id="path146"
           style="fill:#231f20;fill-opacity:1;fill-rule:nonzero;stroke:none"
           d="m 0,0 7.382,0.759 c 0.305,-0.959 0.731,-1.645 1.28,-2.058 0.547,-0.413 1.278,-0.619 2.192,-0.619 0.999,0 1.772,0.233 2.321,0.698 0.426,0.346 0.639,0.778 0.639,1.297 0,0.585 -0.28,1.037 -0.84,1.356 C 12.572,1.659 11.506,1.938 9.776,2.271 7.193,2.763 5.399,3.219 4.395,3.638 3.39,4.057 2.543,4.765 1.855,5.763 1.166,6.76 0.822,7.898 0.822,9.175 c 0,1.397 0.372,2.601 1.115,3.612 0.743,1.011 1.766,1.766 3.07,2.265 1.303,0.499 3.051,0.749 5.244,0.749 2.314,0 4.023,-0.194 5.126,-0.58 1.102,-0.386 2.021,-0.985 2.759,-1.798 0.737,-0.812 1.349,-1.911 1.836,-3.296 L 12.919,9.368 c -0.183,0.679 -0.488,1.179 -0.914,1.499 -0.584,0.426 -1.291,0.639 -2.119,0.639 -0.841,0 -1.453,-0.163 -1.837,-0.489 C 7.665,10.691 7.474,10.296 7.474,9.83 7.474,9.312 7.717,8.919 8.205,8.654 8.692,8.388 9.751,8.149 11.384,7.936 13.857,7.63 15.697,7.204 16.903,6.658 18.108,6.113 19.031,5.335 19.671,4.324 20.31,3.312 20.63,2.201 20.63,0.991 20.63,-0.233 20.292,-1.424 19.616,-2.581 18.94,-3.738 17.874,-4.66 16.418,-5.345 14.962,-6.03 12.98,-6.372 10.471,-6.372 6.925,-6.372 4.401,-5.82 2.896,-4.714 1.392,-3.609 0.426,-2.038 0,0" />
      </g>
      <g
         transform="translate(185.98804,659.29324)"
         id="g148">
        <path
           id="path150"
           style="fill:#231f20;fill-opacity:1;fill-rule:nonzero;stroke:none"
           d="M 0,0 C -0.146,1.571 -0.533,2.696 -1.16,3.376 -1.788,4.055 -2.613,4.395 -3.637,4.395 -4.818,4.395 -5.763,3.882 -6.469,2.856 -6.92,2.217 -7.206,1.265 -7.327,0 Z M 7.565,-3.895 H -7.346 c 0.134,-1.305 0.457,-2.277 0.968,-2.917 0.72,-0.919 1.657,-1.378 2.815,-1.378 0.731,0 1.425,0.2 2.083,0.599 0.402,0.253 0.834,0.7 1.297,1.339 l 7.328,-0.74 c -1.121,-2.13 -2.473,-3.659 -4.057,-4.584 -1.584,-0.925 -3.855,-1.388 -6.816,-1.388 -2.57,0 -4.592,0.396 -6.067,1.189 -1.474,0.791 -2.694,2.05 -3.663,3.775 -0.969,1.724 -1.453,3.752 -1.453,6.082 0,3.316 0.972,6 2.914,8.05 1.943,2.051 4.626,3.077 8.05,3.077 2.778,0 4.97,-0.46 6.578,-1.379 C 4.239,6.911 5.464,5.579 6.304,3.835 7.145,2.091 7.565,-0.18 7.565,-2.976 Z" />
      </g>
    </g>
  </g>
</svg>
